<?xml version="1.0" encoding="UTF-8"?>
<svg version="1.1" xmlns="http://www.w3.org/2000/svg" width="256" height="93">
<path d="M0 0 C4.48021006 2.69580091 6.74215561 6.47646682 8.375 11.375 C9.60543882 27.24967785 9.60543882 27.24967785 4.375 33.375 C-0.08450338 37.22484975 -4.85059378 38.19168552 -10.625 38.375 C-12.64110963 37.75876433 -14.6452215 37.09951469 -16.625 36.375 C-16.61339844 37.30183594 -16.60179687 38.22867188 -16.58984375 39.18359375 C-16.58082031 40.38113281 -16.57179687 41.57867187 -16.5625 42.8125 C-16.55089844 44.00746094 -16.53929687 45.20242187 -16.52734375 46.43359375 C-16.625 49.375 -16.625 49.375 -17.625 50.375 C-19.935 50.375 -22.245 50.375 -24.625 50.375 C-24.625 33.875 -24.625 17.375 -24.625 0.375 C-16.77949275 -2.24016908 -7.83084375 -3.53271147 0 0 Z M-16.625 5.375 C-16.7117982 9.16652334 -16.76532207 12.95779296 -16.8125 16.75 C-16.83763672 17.83023438 -16.86277344 18.91046875 -16.88867188 20.0234375 C-16.89833984 21.0546875 -16.90800781 22.0859375 -16.91796875 23.1484375 C-16.9336792 24.10153809 -16.94938965 25.05463867 -16.96557617 26.03662109 C-16.85318604 26.80828613 -16.7407959 27.57995117 -16.625 28.375 C-12.95591443 30.82105705 -9.88881231 31.21446402 -5.625 30.375 C-2.93394802 28.19925584 -1.16967072 26.46434144 0.375 23.375 C0.79349303 18.8279123 0.91118367 14.70134907 -0.8125 10.4375 C-3.01937867 7.92622427 -4.51104643 6.66119821 -7.625 5.375 C-9.18302307 5.29468082 -10.74482565 5.27398435 -12.3046875 5.30078125 C-13.11405762 5.31149658 -13.92342773 5.32221191 -14.75732422 5.33325195 C-15.37365723 5.34702881 -15.98999023 5.36080566 -16.625 5.375 Z " fill="#9CBDD4" transform="translate(176.625,30.625)"/>
<path d="M0 0 C2.72188767 2.22194912 4.43988215 3.8797643 6 7 C6.08573394 9.25120742 6.10712188 11.50499303 6.09765625 13.7578125 C6.0962413 14.42086395 6.09482635 15.08391541 6.09336853 15.76705933 C6.08776754 17.88641863 6.075215 20.00567259 6.0625 22.125 C6.05748512 23.56119639 6.05292219 24.99739444 6.04882812 26.43359375 C6.03779782 29.95576345 6.02053259 33.47787145 6 37 C-11.60111446 39.77687485 -11.60111446 39.77687485 -18 37 C-20.59457559 34.79185056 -22.4780441 33.04391181 -24 30 C-24.37766377 24.99595502 -24.11200434 22.00114844 -21 18 C-16.77227127 14.30073736 -13.32229966 13.87825484 -7.8125 13.9375 C-6.18248047 13.95103516 -6.18248047 13.95103516 -4.51953125 13.96484375 C-3.68808594 13.97644531 -2.85664063 13.98804688 -2 14 C-2.96776098 10.20452079 -2.96776098 10.20452079 -5 7 C-7.35313555 6.92728259 -9.70833668 6.91629132 -12.0625 6.9375 C-13.35285156 6.94652344 -14.64320313 6.95554687 -15.97265625 6.96484375 C-16.97167969 6.97644531 -17.97070312 6.98804688 -19 7 C-19.33 4.69 -19.66 2.38 -20 0 C-13.0063377 -1.93441723 -6.91272134 -2.63516859 0 0 Z M-16 24 C-15.65772428 26.97065509 -15.65772428 26.97065509 -15 30 C-12.35541621 31.32229189 -10.32238699 31.09677194 -7.375 31.0625 C-6.37210938 31.05347656 -5.36921875 31.04445313 -4.3359375 31.03515625 C-3.56507813 31.02355469 -2.79421875 31.01195312 -2 31 C-2 27.7 -2 24.4 -2 21 C-3.5675 20.938125 -5.135 20.87625 -6.75 20.8125 C-7.63171875 20.77769531 -8.5134375 20.74289063 -9.421875 20.70703125 C-12.44671583 21.05076316 -13.75583602 22.00227459 -16 24 Z " fill="#9BBED7" transform="translate(213,30)"/>
<path d="M0 0 C2.64 0 5.28 0 8 0 C10.42002513 6.38335969 12.7004385 12.80627164 14.92578125 19.25976562 C15.96980731 22.9098852 15.96980731 22.9098852 18 26 C18.17128418 25.39003174 18.34256836 24.78006348 18.51904297 24.15161133 C19.30154704 21.37110649 20.08823266 18.59180137 20.875 15.8125 C21.14441406 14.85279297 21.41382813 13.89308594 21.69140625 12.90429688 C21.95566406 11.97294922 22.21992188 11.04160156 22.4921875 10.08203125 C22.73308105 9.22843018 22.97397461 8.3748291 23.22216797 7.49536133 C24.02057571 4.9339911 24.97190736 2.47712132 26 0 C28.64 0 31.28 0 34 0 C26.15923056 38.03503683 26.15923056 38.03503683 15.375 48.5625 C11.96917272 50.62392178 9.34480679 51.13787416 5.4375 51.125 C4.25994141 51.12886719 4.25994141 51.12886719 3.05859375 51.1328125 C1 51 1 51 -1 50 C-0.67 47.69 -0.34 45.38 0 43 C0.60328125 43.04640625 1.2065625 43.0928125 1.828125 43.140625 C7.00495582 43.41092969 7.00495582 43.41092969 11.625 41.3125 C13.25683488 39.10591519 13.25683488 39.10591519 12.70849609 36.65112305 C12.0124993 34.04677117 11.13731958 31.72919564 10.0390625 29.26953125 C9.64976562 28.38330078 9.26046875 27.49707031 8.859375 26.58398438 C8.04501045 24.75552978 7.22992184 22.92739748 6.4140625 21.09960938 C0 6.48862819 0 6.48862819 0 0 Z " fill="#9CBBD0" transform="translate(222,30)"/>
<path d="M0 0 C4.22094129 5.49104354 3.73343739 11.39153333 3 18 C1.93378472 24.71805438 0.49476886 31.36596933 -1 38 C-3.31 38 -5.62 38 -8 38 C-9.27471805 34.17584585 -8.43676874 31.32405659 -7.625 27.5 C-6.31896256 21.01180046 -5.40642777 14.61496233 -5 8 C-6.98 8 -8.96 8 -11 8 C-11.14099121 8.76666992 -11.28198242 9.53333984 -11.42724609 10.32324219 C-12.07025448 13.80001646 -12.72251949 17.27499145 -13.375 20.75 C-13.59671875 21.9565625 -13.8184375 23.163125 -14.046875 24.40625 C-14.26601562 25.56640625 -14.48515625 26.7265625 -14.7109375 27.921875 C-14.90993652 28.99018555 -15.10893555 30.05849609 -15.31396484 31.15917969 C-15.93304158 33.72273019 -16.70487771 35.7178886 -18 38 C-20.31 38 -22.62 38 -25 38 C-24.2484521 30.06123539 -22.8694202 22.27896778 -21.4375 14.4375 C-21.20353516 13.14263672 -20.96957031 11.84777344 -20.72851562 10.51367188 C-20.15503097 7.34195061 -19.5787914 4.17075639 -19 1 C-17.44000981 0.47804911 -15.87521866 -0.02956433 -14.30859375 -0.53125 C-13.43775146 -0.81548828 -12.56690918 -1.09972656 -11.66967773 -1.39257812 C-7.62020086 -2.31394058 -3.68115155 -1.98737016 0 0 Z " fill="#021A2C" transform="translate(119,30)"/>
<path d="M0 0 C-0.309375 0.598125 -0.61875 1.19625 -0.9375 1.8125 C-2.05990586 4.12333559 -2.87050425 6.35252123 -3.375 8.875 C-4.16467404 11.55989174 -5.55195338 13.60515366 -7 16 C-7.495 17.19625 -7.99 18.3925 -8.5 19.625 C-9.86556991 22.69753229 -10.69189252 23.78806366 -13 26 C-13.6496875 27.423125 -13.6496875 27.423125 -14.3125 28.875 C-16.96971282 33.79576449 -20.23884262 36.32755809 -25.4375 38.3125 C-29.09360532 39.01806418 -32.28771512 39.2911596 -36 39 C-36.66 38.34 -37.32 37.68 -38 37 C-36.88625 35.7315625 -36.88625 35.7315625 -35.75 34.4375 C-31.34111888 29.11686726 -28.64371928 23.71185374 -27 17 C-26.34 17 -25.68 17 -25 17 C-24.855625 15.88625 -24.71125 14.7725 -24.5625 13.625 C-24 10 -24 10 -23 8 C-22.01 8 -21.02 8 -20 8 C-19.773125 7.21625 -19.54625 6.4325 -19.3125 5.625 C-18 3 -18 3 -15.6875 1.75 C-10.27952267 0.24079702 -5.6002584 -0.09491963 0 0 Z " fill="#021A2D" transform="translate(38,29)"/>
<path d="M0 0 C-0.433125 0.7734375 -0.433125 0.7734375 -0.875 1.5625 C-2.13112696 4.10751772 -2.13112696 4.10751772 -2.9375 7.4375 C-3.93976483 10.79803501 -5.15910946 13.05457514 -7 16 C-7.495 17.175625 -7.99 18.35125 -8.5 19.5625 C-9.79821243 22.53757016 -10.99315636 24.51151389 -13 27 C-13.61875 27.99 -14.2375 28.98 -14.875 30 C-18.74068818 35.45744213 -22.46272821 37.64746101 -29 39 C-32.8125 39.25 -32.8125 39.25 -36 39 C-36.66 38.34 -37.32 37.68 -38 37 C-36.515 36.505 -36.515 36.505 -35 36 C-33.90727687 33.69939235 -33.90727687 33.69939235 -33 31 C-31.73876124 28.45001883 -30.43207206 25.92704679 -29.12109375 23.40234375 C-28.11748571 21.2517551 -27.47601536 19.31589496 -27 17 C-26.34 17 -25.68 17 -25 17 C-24.87625 16.071875 -24.7525 15.14375 -24.625 14.1875 C-24 11 -24 11 -22 8 C-21.34 8 -20.68 8 -20 8 C-19.731875 7.401875 -19.46375 6.80375 -19.1875 6.1875 C-17.90508114 3.82514947 -17.2070296 2.54492072 -15 1 C-9.95386483 0.07487522 -5.11799353 -0.10662487 0 0 Z " fill="#011A2F" transform="translate(60,29)"/>
<path d="M0 0 C-0.30292969 0.57492188 -0.60585937 1.14984375 -0.91796875 1.7421875 C-1.93330415 3.8608296 -2.63716704 5.87941432 -3.3125 8.125 C-5.45206982 14.68489936 -8.01434078 21.13727485 -13 26 C-13.6496875 27.423125 -13.6496875 27.423125 -14.3125 28.875 C-16.96971282 33.79576449 -20.23884262 36.32755809 -25.4375 38.3125 C-29.09360532 39.01806418 -32.28771512 39.2911596 -36 39 C-36.66 38.34 -37.32 37.68 -38 37 C-36.515 36.505 -36.515 36.505 -35 36 C-33.90727687 33.69939235 -33.90727687 33.69939235 -33 31 C-31.73876124 28.45001883 -30.43207206 25.92704679 -29.12109375 23.40234375 C-28.11748571 21.2517551 -27.47601536 19.31589496 -27 17 C-26.34 17 -25.68 17 -25 17 C-24.34 14.03 -23.68 11.06 -23 8 C-22.01 8 -21.02 8 -20 8 C-19.731875 7.401875 -19.46375 6.80375 -19.1875 6.1875 C-17.90508114 3.82514947 -17.2070296 2.54492072 -15 1 C-9.95386483 0.07487522 -5.11799353 -0.10662487 0 0 Z " fill="#011B2E" transform="translate(82,29)"/>
<path d="M0 0 C-0.33 3.3 -0.66 6.6 -1 10 C1.64 10.33 4.28 10.66 7 11 C6.67 13.97 6.34 16.94 6 20 C3.03 20.33 0.06 20.66 -3 21 C-4.42002108 27.7831364 -5.22731216 34.06697907 -5 41 C-2.36 40.67 0.28 40.34 3 40 C3 42.97 3 45.94 3 49 C-1.74236993 50.96634851 -4.99919304 51.22661303 -10 50 C-12.05938216 48.42114034 -12.84571211 47.30857577 -14 45 C-14.67595398 35.57854979 -13.37141098 26.60743108 -11.625 17.375 C-11.40328125 16.12332031 -11.1815625 14.87164062 -10.953125 13.58203125 C-9.27024042 4.40536063 -9.27024042 4.40536063 -7 1 C-4.59258404 0.33796061 -2.49346035 0 0 0 Z " fill="#02192D" transform="translate(140,18)"/>
<path d="M0 0 C0.66 0.33 1.32 0.66 2 1 C1.67 1.33 1.34 1.66 1 2 C0.91286169 3.70772358 0.89299993 5.41898649 0.90234375 7.12890625 C0.90556641 8.16337891 0.90878906 9.19785156 0.91210938 10.26367188 C0.92467773 11.8965918 0.92467773 11.8965918 0.9375 13.5625 C0.94201172 14.65498047 0.94652344 15.74746094 0.95117188 16.87304688 C0.96300174 19.58208495 0.97948457 22.29101599 1 25 C1.66 25 2.32 25 3 25 C4.32791716 19.68833136 4.74706142 14.24118425 3 9 C3.66 8.01 4.32 7.02 5 6 C5.66 6 6.32 6 7 6 C7.33 13.59 7.66 21.18 8 29 C10.64458379 30.32229189 12.67761301 30.09677194 15.625 30.0625 C16.62789062 30.05347656 17.63078125 30.04445313 18.6640625 30.03515625 C19.82035156 30.01775391 19.82035156 30.01775391 21 30 C21.144375 30.78375 21.28875 31.5675 21.4375 32.375 C21.87798925 34.96421018 21.87798925 34.96421018 23 37 C17.79080454 39.21390807 14.43151674 38.99577807 9 38 C8.34 37.67 7.68 37.34 7 37 C7.01160156 37.92683594 7.02320313 38.85367188 7.03515625 39.80859375 C7.04417969 41.00613281 7.05320313 42.20367187 7.0625 43.4375 C7.07410156 44.63246094 7.08570313 45.82742187 7.09765625 47.05859375 C7 50 7 50 6 51 C3.66702567 51.04092937 1.33294775 51.04241723 -1 51 C-1.02526787 43.89755001 -1.04283201 36.79511152 -1.05493164 29.69262695 C-1.05997349 27.27432828 -1.06680678 24.85603267 -1.07543945 22.43774414 C-1.08751157 18.97020717 -1.09322963 15.50271034 -1.09765625 12.03515625 C-1.10281754 10.94662857 -1.10797882 9.85810089 -1.11329651 8.73658752 C-1.11337204 7.73562546 -1.11344757 6.73466339 -1.11352539 5.70336914 C-1.115746 4.81734512 -1.11796661 3.93132111 -1.12025452 3.01844788 C-1 1 -1 1 0 0 Z " fill="#9FBFD5" transform="translate(153,30)"/>
<path d="M0 0 C2.64 0 5.28 0 8 0 C7.24595349 7.8917822 5.90635832 15.63823858 4.5 23.4375 C4.16162109 25.3546582 4.16162109 25.3546582 3.81640625 27.31054688 C3.48962891 29.13489258 3.48962891 29.13489258 3.15625 30.99609375 C2.95837891 32.10138428 2.76050781 33.2066748 2.55664062 34.34545898 C2 37 2 37 1 39 C-1.31 39 -3.62 39 -6 39 C-7.65651698 35.68696604 -6.26164418 32.2205918 -5.56640625 28.7109375 C-5.40961899 27.89251373 -5.25283173 27.07408997 -5.09129333 26.23086548 C-4.58791285 23.61099991 -4.07531799 20.99303293 -3.5625 18.375 C-3.22009584 16.60167965 -2.87829122 14.82824343 -2.53710938 13.0546875 C-1.69836327 8.70174874 -0.8513477 4.35049093 0 0 Z " fill="#02192E" transform="translate(86,29)"/>
<path d="M0 0 C0.33 0.99 0.66 1.98 1 3 C0.07767578 3.09087891 0.07767578 3.09087891 -0.86328125 3.18359375 C-1.67152344 3.26738281 -2.47976562 3.35117187 -3.3125 3.4375 C-4.11300781 3.51871094 -4.91351563 3.59992187 -5.73828125 3.68359375 C-8.16087179 3.95265693 -8.16087179 3.95265693 -11 5 C-10.34 5.33 -9.68 5.66 -9 6 C-9 6.66 -9 7.32 -9 8 C-5.7 8 -2.4 8 1 8 C1 11.63 1 15.26 1 19 C0.67 19 0.34 19 0 19 C0 15.7 0 12.4 0 9 C-6.91295034 9.27271541 -6.91295034 9.27271541 -13 12 C-12.938125 12.78375 -12.87625 13.5675 -12.8125 14.375 C-12.874375 15.24125 -12.93625 16.1075 -13 17 C-16 19.3125 -16 19.3125 -19 21 C-20.5 19.9375 -20.5 19.9375 -22 18 C-22.55404884 13.01356041 -22.09180828 9.97518207 -19 6 C-14.77227127 2.30073736 -11.32229966 1.87825484 -5.8125 1.9375 C-4.18248047 1.95103516 -4.18248047 1.95103516 -2.51953125 1.96484375 C-1.68808594 1.97644531 -0.85664063 1.98804688 0 2 C0 1.34 0 0.68 0 0 Z " fill="#8EACC1" transform="translate(211,42)"/>
<path d="M0 0 C-0.33 0.66 -0.66 1.32 -1 2 C-1.66 2 -2.32 2 -3 2 C-3 3.32 -3 4.64 -3 6 C-5.70183055 7.35091528 -8.11808206 7.33858058 -11.125 7.5625 C-12.22070312 7.64628906 -13.31640625 7.73007812 -14.4453125 7.81640625 C-15.28835937 7.87699219 -16.13140625 7.93757813 -17 8 C-17.33 5.69 -17.66 3.38 -18 1 C-11.60985973 -0.58444052 -6.49551291 -1.20287276 0 0 Z " fill="#8CA5B5" transform="translate(211,29)"/>
<path d="M0 0 C1.875 0.9375 1.875 0.9375 3.875 3.9375 C3.43055556 9.38194444 3.43055556 9.38194444 0.875 11.9375 C-1.625 12.1875 -1.625 12.1875 -4.125 11.9375 C-6.125 9.9375 -6.125 9.9375 -6.5 7.0625 C-6.125 3.9375 -6.125 3.9375 -4.375 1.5 C-2.125 -0.0625 -2.125 -0.0625 0 0 Z " fill="#03182A" transform="translate(93.125,13.0625)"/>
<path d="M0 0 C0.99 0 1.98 0 3 0 C3 7.59 3 15.18 3 23 C2.34 22.67 1.68 22.34 1 22 C-0.65 23.65 -2.3 25.3 -4 27 C-4 24.69 -4 22.38 -4 20 C-3.01 19.67 -2.02 19.34 -1 19 C0.32791716 13.68833136 0.74706142 8.24118425 -1 3 C-0.67 2.01 -0.34 1.02 0 0 Z " fill="#89ABC1" transform="translate(157,36)"/>
<path d="M0 0 C0.98484375 0.21269531 1.9696875 0.42539062 2.984375 0.64453125 C3.73203125 0.82371094 4.4796875 1.00289062 5.25 1.1875 C4.59 1.8475 3.93 2.5075 3.25 3.1875 C1.93 3.1875 0.61 3.1875 -0.75 3.1875 C-1.08 4.1775 -1.41 5.1675 -1.75 6.1875 C0.725 7.1775 0.725 7.1775 3.25 8.1875 C0.36174673 9.63162663 -1.77252604 8.66379309 -4.7734375 7.8671875 C-7.16196098 7.04583753 -8.89246661 5.89023894 -10.75 4.1875 C-8.24649522 -0.81950956 -5.13173032 -1.16074853 0 0 Z " fill="#98B5C5" transform="translate(201.75,59.8125)"/>
<path d="M0 0 C3.3 0 6.6 0 10 0 C10 0.66 10 1.32 10 2 C7.69 2 5.38 2 3 2 C3 2.99 3 3.98 3 5 C5.97 5.33 8.94 5.66 12 6 C12 5.34 12 4.68 12 4 C13.32 4.33 14.64 4.66 16 5 C10.95665982 8.10359396 6.77058356 8.60014069 1 8 C0.34 7.67 -0.32 7.34 -1 7 C-0.67 4.69 -0.34 2.38 0 0 Z " fill="#96AEBB" transform="translate(222,73)"/>
<path d="M0 0 C1.65 0 3.3 0 5 0 C4.85975781 2.47960136 4.7130815 4.95852402 4.5625 7.4375 C4.52318359 8.14455078 4.48386719 8.85160156 4.44335938 9.58007812 C4.11328125 14.88671875 4.11328125 14.88671875 3 16 C0.66702567 16.04092937 -1.66705225 16.04241723 -4 16 C-4 15.67 -4 15.34 -4 15 C-2.35 15 -0.7 15 1 15 C0.67 10.05 0.34 5.1 0 0 Z " fill="#88A6BC" transform="translate(156,65)"/>
<path d="M0 0 C2.72869407 0.03287583 5.2966618 0.56397771 8 1 C7.125 4.875 7.125 4.875 6 6 C3.625 6.3125 3.625 6.3125 1 6 C-0.8125 4 -0.8125 4 -2 2 C-1.34 1.34 -0.68 0.68 0 0 Z " fill="#9FC1DC" transform="translate(199,29)"/>
<path d="M0 0 C0.99 0.33 1.98 0.66 3 1 C2.8125 2.875 2.8125 2.875 2 5 C-0.5625 6.25 -0.5625 6.25 -3 7 C-3.66 5.68 -4.32 4.36 -5 3 C-4.360625 2.690625 -3.72125 2.38125 -3.0625 2.0625 C-1.06389179 1.1654837 -1.06389179 1.1654837 0 0 Z " fill="#A5C3D5" transform="translate(196,59)"/>
<path d="M0 0 C2.31 0 4.62 0 7 0 C7.33 0.99 7.66 1.98 8 3 C8.66 3.66 9.32 4.32 10 5 C2.25 5.125 2.25 5.125 0 4 C0 2.68 0 1.36 0 0 Z " fill="#A0C5DE" transform="translate(200,45)"/>
<path d="M0 0 C2.66666667 0 5.33333333 0 8 0 C8 0.66 8 1.32 8 2 C6.68 2.33 5.36 2.66 4 3 C4 3.99 4 4.98 4 6 C1 5 1 5 -1 4 C-0.67 2.68 -0.34 1.36 0 0 Z " fill="#8DAFC1" transform="translate(233,56)"/>
</svg>
